<svg width="141.331787" height="38.577576" viewBox="0 0 141.332 38.5776" fill="none" xmlns="http://www.w3.org/2000/svg" xmlns:xlink="http://www.w3.org/1999/xlink">
	<desc>
			Created with Pixso.
	</desc>
	<defs/>
	<path id="Shape" d="M102.52 10.54C102.2 11.81 101.86 13.08 101.54 14.35C100.77 17.36 100 20.37 99.24 23.39C98.99 24.34 98.62 24.65 97.74 24.65L96.52 24.65C95.79 24.65 95.4 24.34 95.19 23.52C94.54 21 93.9 18.47 93.25 15.95C92.82 14.26 92.38 12.57 91.94 10.88C91.92 10.76 91.86 10.65 91.79 10.56L91.79 11.03L91.79 23.17C91.79 24.22 91.4 24.66 90.49 24.66C89.89 24.66 89.29 24.66 88.7 24.66C87.99 24.65 87.56 24.16 87.56 23.36C87.56 17.66 87.56 11.96 87.56 6.26C87.56 5.48 87.99 4.99 88.67 4.98C90.12 4.97 91.57 4.97 93.01 4.98C93.63 4.98 94.03 5.33 94.21 6.06C94.74 8.23 95.25 10.4 95.76 12.57C96.23 14.52 96.69 16.47 97.17 18.51C97.23 18.31 97.28 18.2 97.3 18.08C98.22 14.19 99.14 10.31 100.07 6.42C100.35 5.23 100.63 4.98 101.71 4.98L105.61 4.98C106.4 4.98 106.81 5.45 106.81 6.34L106.81 23.3C106.81 24.19 106.39 24.65 105.6 24.66L103.82 24.66C103 24.66 102.59 24.2 102.59 23.28L102.59 11.05L102.59 10.56L102.52 10.54Z" fill="#4B5959" fill-opacity="1.000000" fill-rule="evenodd"/>
	<path id="Shape" d="M80.01 12.08C79 14.3 78 16.52 77 18.73C76.24 20.42 75.48 22.12 74.72 23.81C74.45 24.4 74.05 24.68 73.44 24.66C72.48 24.63 71.52 24.65 70.56 24.65C69.8 24.65 69.37 24.18 69.37 23.33L69.37 6.27C69.37 5.47 69.79 4.99 70.5 4.98C71.13 4.97 71.77 4.97 72.41 4.98C73.17 4.98 73.59 5.45 73.59 6.31L73.59 17.35L73.59 17.84L73.65 17.87C73.73 17.72 73.82 17.58 73.88 17.43C75.6 13.63 77.33 9.83 79.03 6.02C79.35 5.29 79.78 4.92 80.52 4.97C81.37 5.01 82.22 4.98 83.08 4.98C83.9 4.98 84.31 5.44 84.31 6.35L84.31 23.27C84.31 24.19 83.9 24.66 83.09 24.66L81.26 24.66C80.51 24.65 80.09 24.18 80.09 23.31L80.09 12.6L80.09 12.1L80.01 12.08Z" fill="#4B5959" fill-opacity="1.000000" fill-rule="evenodd"/>
	<path id="Shape" d="M114.32 20.51L114.79 20.51L122.75 20.51C123.54 20.51 123.95 20.98 123.96 21.87C123.96 22.38 123.96 22.88 123.96 23.39C123.94 24.14 123.52 24.65 122.87 24.65C118.97 24.66 115.07 24.66 111.17 24.65C110.51 24.65 110.07 24.15 110.07 23.41C110.06 17.68 110.06 11.94 110.07 6.21C110.07 5.46 110.5 4.97 111.17 4.97C115.07 4.97 118.97 4.97 122.87 4.97C123.53 4.97 123.94 5.47 123.96 6.23C123.96 6.73 123.96 7.24 123.96 7.74C123.95 8.63 123.54 9.1 122.76 9.1L114.79 9.1L114.32 9.1L114.32 12.78L122.67 12.78C123.56 12.78 123.95 13.22 123.95 14.23L123.95 15.61C123.95 16.44 123.53 16.92 122.79 16.92C120.1 16.92 117.4 16.92 114.71 16.92L114.32 16.92L114.32 20.51Z" fill="#4B5959" fill-opacity="1.000000" fill-rule="evenodd"/>
	<path id="Shape" d="M59.43 4.97L60.89 4.97C61.48 4.98 61.81 5.22 62.01 5.83C63.88 11.47 65.74 17.12 67.6 22.76C67.98 23.92 67.51 24.65 66.42 24.65L64.55 24.65C63.81 24.65 63.52 24.42 63.27 23.65C63.03 22.88 62.78 22.13 62.55 21.36C62.48 21.14 62.39 21.06 62.17 21.06C60.33 21.07 58.49 21.07 56.65 21.06C56.44 21.06 56.34 21.13 56.27 21.36C56.03 22.15 55.78 22.94 55.52 23.73C55.31 24.39 54.98 24.65 54.36 24.65C53.64 24.65 52.93 24.66 52.21 24.65C51.4 24.64 50.88 23.9 51.15 23.04C51.84 20.85 52.57 18.67 53.28 16.5C54.44 12.97 55.61 9.45 56.78 5.92C57.01 5.22 57.32 4.98 58 4.97C58.48 4.97 58.96 4.97 59.43 4.97ZM59.46 10.62L59.36 10.62L57.54 16.9L61.29 16.9L59.46 10.62Z" fill="#4B5959" fill-opacity="1.000000" fill-rule="evenodd"/>
	<path id="Shape" d="M131.43 18.4L131.43 23.25C131.43 24.2 131.02 24.65 130.18 24.65C129.57 24.65 128.96 24.66 128.35 24.65C127.64 24.64 127.21 24.16 127.21 23.36C127.2 17.66 127.2 11.96 127.21 6.26C127.21 5.46 127.64 4.97 128.35 4.97C130.51 4.97 132.68 4.94 134.85 4.99C135.63 5.01 136.41 5.12 137.17 5.32C139.77 6.03 141.18 7.94 141.31 10.96C141.36 11.9 141.3 12.85 141.12 13.78C140.64 16.28 139.09 17.6 136.96 18.1C136.12 18.29 135.25 18.34 134.39 18.38C133.41 18.43 132.44 18.4 131.43 18.4ZM131.46 9.12L131.46 14.25C132.66 14.25 133.84 14.29 135.02 14.24C136.19 14.19 137.11 13.03 137.11 11.68C137.11 10.33 136.2 9.17 135.01 9.13C133.83 9.08 132.66 9.12 131.46 9.12L131.46 9.12Z" fill="#4B5959" fill-opacity="1.000000" fill-rule="evenodd"/>
	<path id="Shape" d="M47.58 13.9C48.04 14.21 48.53 14.46 48.94 14.82C50.01 15.76 50.37 17.08 50.31 18.56C50.18 21.76 47.95 23.86 45.31 24.45C43.61 24.84 41.84 24.74 40.17 24.17C38.06 23.46 36.63 21.97 36.1 19.46C35.91 18.54 36.34 17.86 37.17 17.85C37.87 17.85 38.58 17.85 39.28 17.85C39.87 17.85 40.18 18.1 40.4 18.71C41.09 20.7 43.25 21.52 44.89 20.42C45.54 19.98 45.87 19.34 45.84 18.47C45.8 17.61 45.45 16.9 44.73 16.6C44.17 16.38 43.55 16.28 42.95 16.25C41.98 16.19 41.63 15.85 41.62 14.75C41.62 14.42 41.63 14.1 41.66 13.78C41.72 13.18 42.1 12.81 42.64 12.78C43.05 12.76 43.46 12.78 43.85 12.69C44.9 12.46 45.49 11.68 45.43 10.65C45.38 9.68 44.61 8.81 43.63 8.76C43.04 8.74 42.42 8.86 41.84 9.02C41.37 9.14 41.01 9.53 40.81 10.05C40.53 10.8 40.06 11.11 39.34 11.04C38.83 10.99 38.31 11.03 37.8 11.03C36.85 11.03 36.39 10.35 36.63 9.31C36.96 7.85 37.76 6.78 38.89 6.03C39.91 5.36 41.03 5.09 42.19 5C43.56 4.88 44.92 4.96 46.24 5.42C47.13 5.72 47.92 6.19 48.57 6.95C50.35 9.01 49.98 12.25 47.81 13.74L47.58 13.9Z" fill="#4B5959" fill-opacity="1.000000" fill-rule="evenodd"/>
	<path id="Shape" d="M77.31 4.06C76.16 4.03 75.2 3.85 74.32 3.25C73.82 2.91 73.38 2.48 73.14 1.85C72.89 1.23 73.06 0.59 73.52 0.23C73.98 -0.15 74.62 -0.06 74.99 0.43C75.87 1.56 76.97 1.66 78.14 1.3C78.55 1.17 78.93 0.8 79.27 0.48C79.61 0.15 79.98 -0.09 80.44 0.05C80.86 0.15 81.19 0.53 81.28 1.01C81.38 1.48 81.23 1.89 80.99 2.25C80.3 3.28 79.33 3.74 78.25 3.95C77.89 4.02 77.52 4.04 77.31 4.06Z" fill="#4B5959" fill-opacity="1.000000" fill-rule="evenodd"/>
	<path id="Shape" d="M36.19 32L38.69 32C39.99 32 40.92 32.58 40.92 34.16C40.92 35.61 40.1 36.27 38.92 36.27L37.67 36.27L37.67 38.42L36.19 38.42L36.19 32ZM38.51 34.98C39.02 34.98 39.49 34.93 39.49 34.18C39.49 33.56 39.15 33.37 38.63 33.37L37.67 33.37L37.67 34.98L38.51 34.98Z" fill="#7D8888" fill-opacity="1.000000" fill-rule="nonzero"/>
	<path id="Shape" d="M44.31 38.57C42.55 38.57 41.46 37.17 41.46 35.21C41.46 33.31 42.59 31.85 44.29 31.85C45.98 31.85 47.07 33.15 47.07 35.22C47.07 37.1 46.03 38.57 44.31 38.57ZM44.27 33.21C43.48 33.21 42.97 33.98 42.97 35.2C42.97 36.45 43.46 37.2 44.28 37.2C45.08 37.2 45.55 36.45 45.55 35.17C45.56 33.95 45.07 33.21 44.27 33.21Z" fill="#7D8888" fill-opacity="1.000000" fill-rule="nonzero"/>
	<path id="Shape" d="M50.61 38.42L47.9 38.42L47.9 32L52.37 32L52.37 33.35L49.36 33.35L49.36 34.15L50.69 34.15C52.01 34.15 52.85 34.81 52.85 36.26C52.85 37.81 52.02 38.42 50.61 38.42ZM50.37 35.45L49.35 35.45L49.35 37.06L50.41 37.06C51.04 37.06 51.35 36.87 51.35 36.25C51.35 35.53 50.88 35.45 50.37 35.45L50.37 35.45Z" fill="#7D8888" fill-opacity="1.000000" fill-rule="nonzero"/>
	<path id="Shape" d="M56.31 38.57C54.56 38.57 53.47 37.17 53.47 35.21C53.47 33.31 54.59 31.85 56.3 31.85C57.99 31.85 59.08 33.15 59.08 35.22C59.08 37.1 58.03 38.57 56.31 38.57ZM56.28 33.21C55.49 33.21 54.98 33.98 54.98 35.19C54.98 36.45 55.47 37.19 56.29 37.19C57.09 37.19 57.56 36.45 57.56 35.17C57.56 33.95 57.08 33.21 56.28 33.21L56.28 33.21Z" fill="#7D8888" fill-opacity="1.000000" fill-rule="nonzero"/>
	<path id="Shape" d="M64.41 33.43L62.73 33.43L62.73 38.42L61.23 38.42L61.23 33.43L59.55 33.43L59.55 32L64.41 32L64.41 33.43Z" fill="#7D8888" fill-opacity="1.000000" fill-rule="nonzero"/>
	<path id="Shape" d="M70.27 38.57C68.52 38.57 67.43 37.17 67.43 35.21C67.43 33.31 68.55 31.85 70.25 31.85C71.94 31.85 73.03 33.15 73.03 35.22C73.03 37.1 71.99 38.57 70.27 38.57ZM70.24 33.21C69.44 33.21 68.94 33.98 68.94 35.19C68.94 36.45 69.43 37.19 70.24 37.19C71.05 37.19 71.52 36.45 71.52 35.17C71.52 33.95 71.04 33.21 70.24 33.21L70.24 33.21Z" fill="#7D8888" fill-opacity="1.000000" fill-rule="nonzero"/>
	<path id="Shape" d="M78.76 38.42L77.27 38.42L77.27 35.77L75.35 35.77L75.35 38.42L73.86 38.42L73.86 32L75.35 32L75.35 34.29L77.27 34.29L77.27 32L78.76 32L78.76 38.42Z" fill="#7D8888" fill-opacity="1.000000" fill-rule="nonzero"/>
	<path id="Shape" d="M84.69 38.42L83.2 38.42L83.2 33.43L81.94 33.43L81.87 35.92C81.82 37.73 81.11 38.55 80.14 38.55C79.87 38.54 79.61 38.5 79.36 38.43L79.36 37.09C79.5 37.14 79.65 37.17 79.79 37.17C80.13 37.17 80.4 37.01 80.43 35.69L80.53 32L84.69 32L84.69 38.42Z" fill="#7D8888" fill-opacity="1.000000" fill-rule="nonzero"/>
	<path id="Shape" d="M90.89 38.42L89.36 38.42L89 37.25L87.04 37.25L86.66 38.42L85.15 38.42L87.28 31.99L88.77 31.99L90.89 38.42ZM88.03 33.8L87.38 36.04L88.67 36.04L88.03 33.8Z" fill="#7D8888" fill-opacity="1.000000" fill-rule="nonzero"/>
	<path id="Shape" d="M96.26 38.42L94.82 38.42L94.92 34.15L92.99 38.42L91.36 38.42L91.36 32L92.8 32L92.75 36.27L94.68 32L96.26 32L96.26 38.42ZM93.92 31.69C93.17 31.69 92.46 31.29 92.46 30.33L93.15 30.33C93.22 30.68 93.54 30.85 93.92 30.85C94.29 30.85 94.62 30.68 94.69 30.33L95.37 30.33C95.37 31.29 94.67 31.69 93.92 31.69Z" fill="#7D8888" fill-opacity="1.000000" fill-rule="nonzero"/>
	<path id="Shape" d="M102.19 38.42L100.7 38.42L100.7 35.77L98.79 35.77L98.79 38.42L97.3 38.42L97.3 32L98.79 32L98.79 34.29L100.71 34.29L100.71 32L102.2 32L102.19 38.42Z" fill="#7D8888" fill-opacity="1.000000" fill-rule="nonzero"/>
	<path id="Shape" d="M107.99 38.57C106.41 38.57 105.48 37.73 105.46 36.27L106.94 36.27C106.94 37.03 107.41 37.29 107.98 37.29C108.48 37.29 108.83 36.96 108.83 36.51C108.83 35.98 108.46 35.69 107.92 35.69L107.39 35.69L107.39 34.52C107.56 34.54 107.75 34.54 107.82 34.54C108.46 34.54 108.69 34.2 108.69 33.81C108.69 33.46 108.39 33.13 107.95 33.13C107.37 33.13 107.05 33.4 107.02 33.91L105.61 33.91C105.64 32.58 106.5 31.85 107.91 31.85C109.27 31.85 110.13 32.52 110.13 33.63C110.13 34.19 109.75 34.74 109.32 34.92C109.93 35.06 110.36 35.68 110.34 36.38C110.34 37.69 109.32 38.57 107.99 38.57Z" fill="#7D8888" fill-opacity="1.000000" fill-rule="nonzero"/>
	<path id="Shape" d="M116.28 38.42L114.75 38.42L114.38 37.25L112.42 37.25L112.05 38.42L110.54 38.42L112.66 31.99L114.16 31.99L116.28 38.42ZM113.41 33.8L112.76 36.04L114.05 36.04L113.41 33.8Z" fill="#7D8888" fill-opacity="1.000000" fill-rule="nonzero"/>
	<path id="Shape" d="M121.64 38.42L120.2 38.42L120.3 34.15L118.37 38.42L116.74 38.42L116.74 32L118.18 32L118.13 36.27L120.06 32L121.64 32L121.64 38.42ZM119.3 31.69C118.55 31.69 117.84 31.29 117.84 30.33L118.53 30.33C118.6 30.68 118.93 30.85 119.3 30.85C119.68 30.85 120 30.68 120.08 30.33L120.76 30.33C120.76 31.29 120.05 31.69 119.3 31.69Z" fill="#7D8888" fill-opacity="1.000000" fill-rule="nonzero"/>
	<path id="Shape" d="M122.69 32L124.84 32L125.88 36.45L126.94 32L129.03 32L129.03 38.42L127.63 38.42L127.7 33.52L126.44 38.42L125.3 38.42L124.04 33.53L124.09 38.42L122.69 38.42L122.69 32Z" fill="#7D8888" fill-opacity="1.000000" fill-rule="nonzero"/>
	<path id="Shape" d="M132.72 38.57C130.97 38.57 129.87 37.17 129.87 35.21C129.87 33.31 131 31.85 132.7 31.85C134.39 31.85 135.48 33.15 135.48 35.22C135.48 37.1 134.44 38.57 132.72 38.57ZM132.69 33.21C131.89 33.21 131.39 33.98 131.39 35.19C131.39 36.45 131.87 37.19 132.69 37.19C133.5 37.19 133.97 36.45 133.97 35.17C133.97 33.95 133.48 33.21 132.69 33.21L132.69 33.21Z" fill="#7D8888" fill-opacity="1.000000" fill-rule="nonzero"/>
	<path id="Shape" d="M136.31 32L139.16 32C140.14 32 140.99 32.43 140.99 33.61C140.99 34.26 140.73 34.63 140.25 34.91C140.93 35.16 141.27 35.7 141.27 36.49C141.27 37.08 141.08 37.58 140.71 37.93C140.22 38.4 139.68 38.42 139.06 38.42L136.31 38.42L136.31 32ZM138.82 34.53C139.32 34.53 139.55 34.34 139.55 33.9C139.55 33.37 139.17 33.28 138.78 33.28L137.76 33.28L137.76 34.53L138.82 34.53ZM138.93 37.09C139.37 37.09 139.77 36.99 139.77 36.36C139.77 35.73 139.35 35.63 138.89 35.63L137.76 35.63L137.76 37.1L138.93 37.09Z" fill="#7D8888" fill-opacity="1.000000" fill-rule="nonzero"/>
	<path id="Rectangle-path" d="M0 27.3L9.84 27.3L9.84 38.45L0 38.45L0 27.3Z" fill="#FF8900" fill-opacity="1.000000" fill-rule="evenodd"/>
	<path id="Shape" d="M9.84 27.3L0 38.45L0 27.3L9.84 27.3Z" fill="#FFA700" fill-opacity="1.000000" fill-rule="nonzero"/>
	<path id="Rectangle-path" d="M9.85 27.3L19.7 27.3L19.7 38.45L9.85 38.45L9.85 27.3Z" fill="#FFB83A" fill-opacity="1.000000" fill-rule="evenodd"/>
	<path id="Shape" d="M19.7 27.3L9.85 38.45L9.85 27.3L19.7 27.3Z" fill="#FFCA49" fill-opacity="1.000000" fill-rule="nonzero"/>
	<path id="Rectangle-path" d="M9.85 16.15L19.7 16.15L19.7 27.3L9.85 27.3L9.85 16.15Z" fill="#B8BA3C" fill-opacity="1.000000" fill-rule="evenodd"/>
	<path id="Shape" d="M19.7 16.15L9.85 27.3L9.85 16.15L19.7 16.15Z" fill="#CACB4B" fill-opacity="1.000000" fill-rule="nonzero"/>
	<path id="Rectangle-path" d="M19.7 16.15L29.55 16.15L29.55 27.3L19.7 27.3L19.7 16.15Z" fill="#71BB3E" fill-opacity="1.000000" fill-rule="evenodd"/>
	<path id="Shape" d="M29.55 16.15L19.7 27.3L19.7 16.15L29.55 16.15Z" fill="#8DCC4E" fill-opacity="1.000000" fill-rule="nonzero"/>
	<path id="Rectangle-path" d="M19.7 5L29.55 5L29.55 16.15L19.7 16.15L19.7 5Z" fill="#4C9D33" fill-opacity="1.000000" fill-rule="evenodd"/>
	<path id="Shape" d="M29.55 5L19.7 16.15L19.7 5L29.55 5Z" fill="#5FB640" fill-opacity="1.000000" fill-rule="nonzero"/>
</svg>
