<svg width="112.000000" height="32.000000" viewBox="0 0 112 32" fill="none" xmlns="http://www.w3.org/2000/svg" xmlns:xlink="http://www.w3.org/1999/xlink">
	<desc>
			Created with Pixso.
	</desc>
	<defs>
		<clipPath id="clip1_173">
			<rect id="logo" rx="0.000000" width="111.000000" height="31.000000" transform="translate(0.500000 0.500000)" fill="white" fill-opacity="0"/>
		</clipPath>
	</defs>
	<rect id="logo" rx="0.000000" width="111.000000" height="31.000000" transform="translate(0.500000 0.500000)" fill="#FFFFFF" fill-opacity="0"/>
	<g clip-path="url(#clip1_173)">
		<path id="Vector" d="M13.68 6.25L13.14 10.01L9.21 10.01L9.21 25.47L4.2 25.47L4.2 10.09L0 10.09L0 6.25L13.68 6.25Z" fill="#3E3E3E" fill-opacity="1.000000" fill-rule="nonzero"/>
		<path id="Vector" d="M25.67 19.57L17.53 19.57C17.62 20.73 17.89 21.53 18.33 21.98C18.78 22.43 19.41 22.61 20.21 22.61C20.75 22.61 21.19 22.52 21.73 22.34C22.27 22.16 22.81 21.8 23.34 21.44L25.31 24.04C23.79 25.38 21.91 26.09 19.85 26.09C17.53 26.09 15.83 25.38 14.58 23.95C13.41 22.52 12.79 20.64 12.79 18.23C12.79 16.71 13.05 15.37 13.5 14.12C13.95 12.86 14.75 11.97 15.74 11.26C16.72 10.54 17.97 10.27 19.32 10.27C21.28 10.27 22.89 10.9 24.06 12.24C25.22 13.58 25.85 15.46 25.85 17.87C25.76 18.41 25.76 18.94 25.67 19.57ZM21.02 16.53C21.02 15.46 20.93 14.65 20.66 14.12C20.39 13.58 19.94 13.31 19.32 13.31C18.78 13.31 18.33 13.58 17.97 14.03C17.71 14.47 17.53 15.37 17.44 16.71L21.02 16.71L21.02 16.53Z" fill="#3E3E3E" fill-opacity="1.000000" fill-rule="nonzero"/>
		<path id="Vector" d="M38.64 11.44C39.26 12.15 39.62 13.22 39.62 14.56L39.62 25.56L34.79 25.56L34.79 15.19C34.79 14.74 34.7 14.38 34.61 14.21C34.43 14.03 34.25 13.94 33.99 13.94C33.45 13.94 32.91 14.47 32.2 15.46L32.2 25.56L27.37 25.56L27.37 10.72L31.57 10.72L31.93 12.33C32.47 11.61 33.09 11.08 33.72 10.72C34.34 10.36 35.06 10.18 35.86 10.18C37.12 10.27 38.01 10.63 38.64 11.44Z" fill="#3E3E3E" fill-opacity="1.000000" fill-rule="nonzero"/>
		<path id="Vector" d="M54.83 11.7C53.93 12.15 52.68 12.33 51.07 12.33C51.97 12.69 52.68 13.22 53.04 13.85C53.4 14.47 53.67 15.19 53.67 16.17C53.67 17.15 53.4 17.96 52.95 18.76C52.5 19.57 51.79 20.01 50.89 20.37C50 20.82 48.92 21 47.76 21C47.14 21 46.69 20.91 46.33 20.82C46.06 21 45.97 21.27 45.97 21.53C45.97 21.8 46.06 21.98 46.24 22.16C46.42 22.34 46.78 22.34 47.4 22.34L49.19 22.34C50.89 22.34 52.23 22.7 53.22 23.5C54.2 24.3 54.74 25.29 54.74 26.63C54.74 28.15 54.11 29.4 52.86 30.29C51.61 31.19 49.82 31.63 47.4 31.63C45.7 31.63 44.27 31.45 43.29 31.01C42.31 30.65 41.59 30.11 41.23 29.4C40.87 28.68 40.61 27.79 40.61 26.81L44.9 26.81C44.9 27.43 45.08 27.88 45.44 28.15C45.79 28.42 46.42 28.51 47.4 28.51C48.3 28.51 48.92 28.33 49.28 28.06C49.64 27.79 49.82 27.43 49.82 26.9C49.82 26 49.28 25.56 48.12 25.56L46.6 25.56C45.08 25.56 43.92 25.29 43.2 24.75C42.48 24.22 42.13 23.5 42.13 22.61C42.13 22.07 42.31 21.53 42.57 21C42.93 20.46 43.29 20.1 43.83 19.75C42.93 19.21 42.31 18.67 41.95 17.96C41.59 17.33 41.32 16.44 41.32 15.46C41.32 13.76 41.86 12.42 43.02 11.43C44.18 10.45 45.7 10 47.67 10C48.92 10 50 9.83 50.89 9.56C51.79 9.2 52.77 8.75 53.84 8.04L54.83 11.7ZM45.97 15.64C45.97 17.15 46.51 17.96 47.58 17.96C48.12 17.96 48.48 17.78 48.75 17.42C49.01 17.07 49.1 16.44 49.1 15.64C49.1 14.83 49.01 14.29 48.75 13.94C48.48 13.58 48.12 13.4 47.58 13.4C46.51 13.4 45.97 14.12 45.97 15.64Z" fill="#3E3E3E" fill-opacity="1.000000" fill-rule="nonzero"/>
		<path id="Vector" d="M67.62 19.57L59.48 19.57C59.57 20.73 59.84 21.53 60.29 21.98C60.73 22.43 61.36 22.61 62.16 22.61C62.7 22.61 63.15 22.52 63.68 22.34C64.22 22.16 64.76 21.8 65.29 21.44L67.26 24.04C65.74 25.38 63.86 26.09 61.81 26.09C59.48 26.09 57.78 25.38 56.53 23.95C55.37 22.52 54.74 20.64 54.74 18.23C54.74 16.71 55.01 15.37 55.45 14.12C55.9 12.86 56.71 11.97 57.69 11.26C58.68 10.54 59.93 10.27 61.27 10.27C63.24 10.27 64.85 10.9 66.01 12.24C67.17 13.58 67.8 15.46 67.8 17.87C67.8 18.41 67.71 18.94 67.62 19.57ZM63.06 16.53C63.06 15.46 62.97 14.65 62.7 14.12C62.43 13.58 61.98 13.31 61.36 13.31C60.82 13.31 60.37 13.58 60.02 14.03C59.75 14.47 59.57 15.37 59.48 16.71L63.06 16.71L63.06 16.53Z" fill="#3E3E3E" fill-opacity="1.000000" fill-rule="nonzero"/>
		<path id="Vector" d="M77.56 0.78L107 0.78C109.76 0.78 112 3.02 112 5.78L112 25.76C112 28.52 109.76 30.76 107 30.76L77.56 30.76C74.8 30.76 72.56 28.52 72.56 25.76L72.56 5.78C72.56 3.02 74.8 0.78 77.56 0.78Z" fill="#FF5146" fill-opacity="1.000000" fill-rule="evenodd"/>
		<path id="Vector" d="M88.19 7.11C89.53 7.65 90.6 8.54 91.41 9.97C92.21 11.4 92.66 13.37 92.66 15.87C92.66 19.44 91.86 21.95 90.24 23.38C88.63 24.81 86.49 25.52 83.8 25.52L78.08 25.52L78.08 6.3L83.54 6.3C85.24 6.3 86.85 6.57 88.19 7.11ZM83 9.88L83 21.95L84.07 21.95C84.88 21.95 85.5 21.77 86.04 21.41C86.49 21.05 86.94 20.43 87.2 19.53C87.47 18.64 87.56 17.39 87.56 15.87C87.56 14.35 87.38 13.1 87.2 12.2C86.94 11.31 86.58 10.68 86.04 10.42C85.59 10.06 84.97 9.88 84.16 9.88L83 9.88Z" fill="#FFFFFF" fill-opacity="1.000000" fill-rule="nonzero"/>
		<path id="Vector" d="M105.81 22.3C105.9 22.48 106.17 22.66 106.44 22.84L105.45 25.97C104.56 25.88 103.84 25.7 103.22 25.43C102.68 25.16 102.23 24.63 101.87 23.91C100.98 25.34 99.64 26.06 97.85 26.06C96.51 26.06 95.43 25.61 94.63 24.81C93.82 23.91 93.47 22.84 93.47 21.5C93.47 19.89 94 18.64 95.08 17.74C96.15 16.85 97.76 16.49 99.82 16.49L100.8 16.49L100.8 15.96C100.8 15.15 100.62 14.53 100.35 14.26C100.08 13.99 99.55 13.81 98.83 13.81C97.94 13.81 96.77 14.08 95.43 14.53L94.36 11.49C95.16 11.13 96.06 10.86 97.04 10.68C98.03 10.51 98.92 10.42 99.73 10.42C101.7 10.42 103.22 10.86 104.11 11.67C105.09 12.56 105.54 13.9 105.54 15.69L105.54 21.32C105.63 21.77 105.63 22.12 105.81 22.3ZM100.26 22.39C100.53 22.21 100.71 21.95 100.89 21.59L100.89 19L100.35 19C99.64 19 99.1 19.17 98.74 19.44C98.38 19.8 98.21 20.25 98.21 20.96C98.21 21.5 98.3 21.95 98.47 22.21C98.65 22.48 98.92 22.66 99.37 22.66C99.64 22.66 100 22.57 100.26 22.39Z" fill="#FFFFFF" fill-opacity="1.000000" fill-rule="nonzero"/>
		<path id="Vector" d="M14.04 3.84L0 3.84L0 0L14.58 0L14.04 3.84Z" fill="#3E3E3E" fill-opacity="1.000000" fill-rule="nonzero"/>
	</g>
</svg>
