<svg width="372.000000" height="57.000000" viewBox="0 0 372 57" fill="none" xmlns="http://www.w3.org/2000/svg" xmlns:xlink="http://www.w3.org/1999/xlink">
	<desc>
			Created with Pixso.
	</desc>
	<defs>
		<clipPath id="clip7_168">
			<rect id="logo 1" rx="0.000000" width="371.000000" height="56.000000" transform="translate(0.500000 0.500000)" fill="white" fill-opacity="0"/>
		</clipPath>
	</defs>
	<rect id="logo 1" rx="0.000000" width="371.000000" height="56.000000" transform="translate(0.500000 0.500000)" fill="#FFFFFF" fill-opacity="0"/>
	<g clip-path="url(#clip7_168)">
		<path id="Vector" d="M54.68 21.68L52.08 21.68L52.08 15.86C52.08 13.5 50.22 11.64 47.86 11.64L46.12 11.64L15.74 11.64L9.3 11.64C7.68 11.64 6.44 10.4 6.44 8.79C6.44 7.31 7.68 5.94 9.3 5.94L28.14 5.94C29.01 5.94 29.63 5.32 29.63 4.46C29.63 3.59 29.01 2.97 28.14 2.97L9.3 2.97C6.07 2.97 3.47 5.57 3.47 8.79C3.47 12.01 6.07 14.62 9.3 14.62L15.74 14.62L46 14.62L47.74 14.62C48.48 14.62 48.98 15.11 48.98 15.86L48.98 21.68L42.28 21.68C40.17 21.68 38.43 23.41 38.43 25.52L38.43 32.71C38.43 34.81 40.17 36.55 42.28 36.55L48.98 36.55L48.98 41.63C48.98 42.37 48.36 42.87 47.74 42.87L8.06 42.87C7.31 42.87 6.82 42.37 6.82 41.63L6.82 18.83C6.82 17.96 6.2 17.34 5.33 17.34C4.46 17.34 3.84 17.96 3.84 18.83L3.84 41.75C3.84 44.11 5.7 45.97 8.06 45.97L47.74 45.97C50.09 45.97 51.95 44.11 51.95 41.75L51.95 36.67L54.68 36.67C56.79 36.67 58.52 34.94 58.52 32.83L58.52 25.65C58.65 23.41 56.91 21.68 54.68 21.68ZM55.55 32.71C55.55 33.2 55.18 33.58 54.68 33.58L42.28 33.58C41.78 33.58 41.41 33.2 41.41 32.71L41.41 25.52C41.41 25.03 41.78 24.65 42.28 24.65L54.68 24.65C55.18 24.65 55.55 25.03 55.55 25.52L55.55 32.71Z" fill="#44B251" fill-opacity="1.000000" fill-rule="nonzero"/>
		<path id="Vector" d="M52.08 21.68L52.08 15.86C52.08 13.5 50.22 11.64 47.86 11.64L46.12 11.64L15.74 11.64L9.3 11.64C7.68 11.64 6.44 10.4 6.44 8.79C6.44 7.31 7.68 5.94 9.3 5.94L28.14 5.94C29.01 5.94 29.63 5.32 29.63 4.46C29.63 3.59 29.01 2.97 28.14 2.97L9.3 2.97C6.07 2.97 3.47 5.57 3.47 8.79C3.47 12.01 6.07 14.62 9.3 14.62L15.74 14.62L46 14.62L47.74 14.62C48.48 14.62 48.98 15.11 48.98 15.86L48.98 21.68L42.28 21.68C40.17 21.68 38.43 23.41 38.43 25.52L38.43 32.71C38.43 34.81 40.17 36.55 42.28 36.55L48.98 36.55L48.98 41.63C48.98 42.37 48.36 42.87 47.74 42.87L8.06 42.87C7.31 42.87 6.82 42.37 6.82 41.63L6.82 18.83C6.82 17.96 6.2 17.34 5.33 17.34C4.46 17.34 3.84 17.96 3.84 18.83L3.84 41.75C3.84 44.11 5.7 45.97 8.06 45.97L47.74 45.97C50.09 45.97 51.95 44.11 51.95 41.75L51.95 36.67L54.68 36.67C56.79 36.67 58.52 34.94 58.52 32.83L58.52 25.65C58.65 23.41 56.91 21.68 54.68 21.68L52.08 21.68ZM54.68 33.58L42.28 33.58C41.78 33.58 41.41 33.2 41.41 32.71L41.41 25.52C41.41 25.03 41.78 24.65 42.28 24.65L54.68 24.65C55.18 24.65 55.55 25.03 55.55 25.52L55.55 32.71C55.55 33.2 55.18 33.58 54.68 33.58Z" stroke="#005A5F" stroke-opacity="1.000000" stroke-width="0.750000"/>
		<path id="Vector" d="M45.75 27.38C44.76 27.38 44.02 28.12 44.02 29.11C44.02 30.11 44.76 30.85 45.75 30.85C46.74 30.85 47.49 30.11 47.49 29.11C47.49 28.25 46.74 27.38 45.75 27.38Z" fill="#44B251" fill-opacity="1.000000" fill-rule="nonzero"/>
		<path id="Vector" d="M44.02 29.11C44.02 30.11 44.76 30.85 45.75 30.85C46.74 30.85 47.49 30.11 47.49 29.11C47.49 28.25 46.74 27.38 45.75 27.38C44.76 27.38 44.02 28.12 44.02 29.11Z" stroke="#005A5F" stroke-opacity="1.000000" stroke-width="0.750000"/>
		<path id="Vector" d="M35.71 6.07L49.97 6.07C50.84 6.07 51.46 5.45 51.46 4.58C51.46 3.71 50.84 3.09 49.97 3.09L35.71 3.09C34.84 3.09 34.22 3.71 34.22 4.58C34.22 5.32 34.84 6.07 35.71 6.07Z" fill="#44B251" fill-opacity="1.000000" fill-rule="nonzero"/>
		<path id="Vector" d="M49.97 6.07C50.84 6.07 51.46 5.45 51.46 4.58C51.46 3.71 50.84 3.09 49.97 3.09L35.71 3.09C34.84 3.09 34.22 3.71 34.22 4.58C34.22 5.32 34.84 6.07 35.71 6.07L49.97 6.07Z" stroke="#005A5F" stroke-opacity="1.000000" stroke-width="0.750000"/>
		<path id="Vector" d="M15.99 27.26L21.2 27.26L21.2 39.15C21.2 40.02 21.82 40.64 22.69 40.64C23.56 40.64 24.18 40.02 24.18 39.15L24.18 27.26L29.38 27.26C30.25 27.26 30.87 26.64 30.87 25.77C30.87 24.9 30.25 24.28 29.38 24.28L15.99 24.28C15.12 24.28 14.5 24.9 14.5 25.77C14.5 26.51 15.25 27.26 15.99 27.26Z" fill="#44B251" fill-opacity="1.000000" fill-rule="nonzero"/>
		<path id="Vector" d="M21.2 27.26L21.2 39.15C21.2 40.02 21.82 40.64 22.69 40.64C23.56 40.64 24.18 40.02 24.18 39.15L24.18 27.26L29.38 27.26C30.25 27.26 30.87 26.64 30.87 25.77C30.87 24.9 30.25 24.28 29.38 24.28L15.99 24.28C15.12 24.28 14.5 24.9 14.5 25.77C14.5 26.51 15.25 27.26 15.99 27.26L21.2 27.26Z" stroke="#005A5F" stroke-opacity="1.000000" stroke-width="0.750000"/>
		<path id="Vector" d="M15.99 21.56L29.51 21.56C30.38 21.56 31 20.94 31 20.07C31 19.2 30.38 18.58 29.51 18.58L15.99 18.58C15.12 18.58 14.5 19.2 14.5 20.07C14.5 20.94 15.25 21.56 15.99 21.56Z" fill="#44B251" fill-opacity="1.000000" fill-rule="nonzero"/>
		<path id="Vector" d="M29.51 21.56C30.38 21.56 31 20.94 31 20.07C31 19.2 30.38 18.58 29.51 18.58L15.99 18.58C15.12 18.58 14.5 19.2 14.5 20.07C14.5 20.94 15.25 21.56 15.99 21.56L29.51 21.56Z" stroke="#005A5F" stroke-opacity="1.000000" stroke-width="0.750000"/>
		<path id="Vector" d="M88.16 13.75L84.32 13.75C84.07 13.75 83.94 14 83.94 14.12L83.94 23.54C83.94 24.78 83.45 25.77 82.46 26.64C81.46 27.5 80.22 28 78.74 28C76.75 28 75.26 27.38 74.15 26.14C73.03 24.9 72.41 23.04 72.41 20.69L72.41 14.12C72.41 13.87 72.16 13.75 72.04 13.75L68.19 13.75C67.95 13.75 67.82 14 67.82 14.12L67.82 20.81C67.82 24.41 68.82 27.26 70.68 29.36C72.66 31.47 75.14 32.46 78.24 32.46C79.48 32.46 80.72 32.21 81.96 31.59C82.83 31.22 83.45 30.85 84.07 30.35L84.07 42.99C84.07 43.24 84.32 43.36 84.44 43.36L88.28 43.36C88.53 43.36 88.66 43.12 88.66 42.99L88.66 14.12C88.53 13.87 88.41 13.75 88.16 13.75Z" fill="#3E3E3E" fill-opacity="1.000000" fill-rule="nonzero"/>
		<path id="Vector" d="M101.68 22.42C98.82 22.42 96.34 23.54 94.24 25.65C92.25 27.75 91.26 30.23 91.26 33.08C91.26 36.05 92.25 38.53 94.24 40.64C96.22 42.75 98.7 43.86 101.68 43.86C103.54 43.86 105.15 43.36 106.76 42.5C108.12 41.75 109.12 40.76 109.98 39.65C110.11 39.52 110.11 39.28 109.98 39.15L107.38 36.67C107.26 36.55 107.13 36.55 107.01 36.55C106.88 36.55 106.76 36.67 106.76 36.67C106.14 37.54 105.52 38.28 104.65 38.78C103.66 39.4 102.67 39.65 101.68 39.65C100.19 39.65 99.07 39.15 97.96 38.28C96.96 37.42 96.34 36.43 95.97 35.06L111.6 35.06C111.84 35.06 111.97 34.94 111.97 34.69L112.09 33.08C112.09 30.23 111.1 27.75 108.99 25.65C107.01 23.54 104.53 22.42 101.68 22.42ZM101.68 26.64C103.16 26.64 104.28 27.13 105.4 28C106.39 28.87 107.01 29.86 107.38 31.1L96.1 31.1C96.47 29.86 97.09 28.74 98.08 28C99.07 27.13 100.31 26.64 101.68 26.64Z" fill="#3E3E3E" fill-opacity="1.000000" fill-rule="nonzero"/>
		<path id="Vector" d="M129.7 36.05C129.58 35.93 129.45 35.93 129.33 35.93C129.2 35.93 129.08 36.05 129.08 36.18C128.58 37.17 127.96 38.04 127.1 38.53C126.1 39.15 125.11 39.52 123.87 39.52C122.26 39.52 120.9 38.9 119.66 37.66C118.54 36.43 117.92 34.94 117.92 33.08C117.92 31.22 118.54 29.61 119.66 28.37C120.77 27.13 122.14 26.51 123.87 26.51C124.99 26.51 125.98 26.76 126.97 27.38C127.96 28 128.58 28.74 129.08 29.86C129.08 29.98 129.2 30.11 129.33 30.11C129.45 30.11 129.58 30.11 129.7 29.98L132.3 27.5C132.43 27.38 132.43 27.13 132.3 27.01C131.19 25.52 129.82 24.41 128.46 23.66C126.97 22.92 125.48 22.55 123.75 22.55C120.9 22.55 118.42 23.66 116.31 25.77C114.32 27.88 113.33 30.35 113.33 33.2C113.33 36.18 114.32 38.66 116.31 40.76C118.29 42.87 120.77 43.98 123.75 43.98C125.61 43.98 127.47 43.49 129.08 42.5C130.44 41.63 131.56 40.51 132.43 39.15C132.55 39.03 132.55 38.78 132.3 38.66L129.7 36.05Z" fill="#3E3E3E" fill-opacity="1.000000" fill-rule="nonzero"/>
		<path id="Vector" d="M154.75 22.42C152.27 22.42 150.28 23.41 148.67 25.27C147.18 23.41 145.08 22.42 142.6 22.42C140.12 22.42 138.13 23.29 136.52 24.9C135.03 26.51 134.29 28.74 134.29 31.59L134.29 42.99C134.29 43.24 134.53 43.36 134.66 43.36L138.13 43.36C138.38 43.36 138.5 43.12 138.5 42.99L138.5 30.97C138.5 29.61 138.88 28.62 139.62 27.88C140.36 27.13 141.23 26.76 142.47 26.76C143.71 26.76 144.58 27.13 145.32 27.88C146.07 28.62 146.44 29.73 146.44 30.97L146.44 43.12C146.44 43.36 146.69 43.49 146.81 43.49L150.28 43.49C150.53 43.49 150.66 43.24 150.66 43.12L150.66 30.97C150.66 29.61 151.03 28.62 151.77 27.88C152.52 27.13 153.38 26.76 154.62 26.76C155.86 26.76 156.73 27.13 157.48 27.88C158.22 28.62 158.59 29.61 158.59 30.97L158.59 43.12C158.59 43.36 158.84 43.49 158.96 43.49L162.44 43.49C162.68 43.49 162.81 43.24 162.81 43.12L162.81 31.72C162.81 28.87 162.06 26.64 160.58 25.03C159.21 23.29 157.23 22.42 154.75 22.42Z" fill="#3E3E3E" fill-opacity="1.000000" fill-rule="nonzero"/>
		<path id="Vector" d="M183.76 22.8L180.29 22.8C180.04 22.8 179.92 23.04 179.92 23.17L179.92 29.98L170.87 29.98L170.87 23.17C170.87 22.92 170.62 22.8 170.5 22.8L167.02 22.8C166.78 22.8 166.65 23.04 166.65 23.17L166.65 42.99C166.65 43.24 166.9 43.36 167.02 43.36L170.5 43.36C170.74 43.36 170.87 43.12 170.87 42.99L170.87 34.07L179.92 34.07L179.92 42.99C179.92 43.24 180.17 43.36 180.29 43.36L183.76 43.36C184.01 43.36 184.14 43.12 184.14 42.99L184.14 23.17C184.26 22.92 184.01 22.8 183.76 22.8Z" fill="#3E3E3E" fill-opacity="1.000000" fill-rule="nonzero"/>
		<path id="Vector" d="M210.67 22.8L207.08 22.8C206.83 22.8 206.7 23.04 206.7 23.17L206.7 42.99C206.7 43.24 206.95 43.36 207.08 43.36L210.67 43.36C210.92 43.36 211.04 43.12 211.04 42.99L211.04 23.17C211.17 22.92 210.92 22.8 210.67 22.8Z" fill="#3E3E3E" fill-opacity="1.000000" fill-rule="nonzero"/>
		<path id="Vector" d="M196.16 27.26C196.04 27.26 195.67 27.26 195.05 27.38C194.3 27.5 194.06 27.63 193.93 27.75C193.81 27.75 193.81 27.88 193.68 28L192.44 32.46C192.44 32.71 192.44 32.83 192.69 32.96C192.82 33.08 193.06 32.96 193.19 32.83C193.68 32.34 194.18 31.96 194.68 31.72C195.17 31.47 195.67 31.47 196.16 31.47C197.28 31.47 198.27 31.84 199.02 32.71C199.88 33.58 200.26 34.44 200.26 35.56C200.26 36.67 199.88 37.66 199.02 38.53C198.15 39.4 197.28 39.77 196.16 39.77C195.05 39.77 194.06 39.4 193.31 38.66C192.44 37.91 192.07 36.92 192.07 35.68L192.07 23.41C192.07 23.17 191.82 23.04 191.7 23.04L188.1 23.04C187.86 23.04 187.73 23.29 187.73 23.41L187.73 34.32C187.73 35.19 187.73 36.18 187.86 36.92C187.98 37.79 188.1 38.53 188.35 39.03C188.97 40.51 190.09 41.75 191.45 42.75C192.82 43.74 194.43 44.11 196.16 44.11C198.52 44.11 200.5 43.24 202.12 41.63C203.73 40.02 204.47 38.04 204.47 35.81C204.47 33.7 203.73 31.84 202.36 30.23C200.88 28.12 198.77 27.26 196.16 27.26Z" fill="#3E3E3E" fill-opacity="1.000000" fill-rule="nonzero"/>
		<path id="Vector" d="M224.06 22.42C221.21 22.42 218.73 23.54 216.62 25.65C214.64 27.75 213.65 30.23 213.65 33.08C213.65 36.05 214.64 38.53 216.62 40.64C218.61 42.75 221.09 43.86 224.06 43.86C225.92 43.86 227.54 43.36 229.15 42.5C230.51 41.75 231.5 40.76 232.37 39.65C232.5 39.52 232.5 39.28 232.37 39.15L229.77 36.67C229.64 36.55 229.52 36.55 229.4 36.55C229.27 36.55 229.15 36.67 229.15 36.67C228.53 37.54 227.91 38.28 227.04 38.78C226.3 39.28 225.3 39.52 224.19 39.52C222.7 39.52 221.58 39.03 220.47 38.16C219.48 37.29 218.86 36.3 218.48 34.94L233.98 34.94C234.23 34.94 234.36 34.81 234.36 34.57L234.48 32.96C234.48 30.11 233.49 27.63 231.38 25.52C229.4 23.54 226.92 22.42 224.06 22.42ZM224.06 26.64C225.55 26.64 226.67 27.13 227.78 28C228.78 28.87 229.4 29.86 229.77 31.1L218.48 31.1C218.86 29.86 219.48 28.74 220.47 28C221.46 27.13 222.7 26.64 224.06 26.64Z" fill="#3E3E3E" fill-opacity="1.000000" fill-rule="nonzero"/>
		<path id="Vector" d="M258.91 13.87C257.17 13.87 255.56 14 254.07 14.25C252.58 14.49 251.1 14.86 249.73 15.24C249.61 15.24 249.48 15.36 249.48 15.61L248.99 19.33C248.99 19.45 248.99 19.57 249.11 19.7C249.24 19.82 249.36 19.82 249.48 19.82C251.1 19.2 252.71 18.83 254.44 18.46C256.06 18.21 257.42 17.96 258.41 17.96C260.27 17.96 261.64 18.33 262.63 19.08C263.74 19.95 264.24 21.56 264.24 23.66L264.24 33.08C264.24 35.06 263.62 36.67 262.5 37.79C261.39 39.03 260.02 39.52 258.29 39.52C256.55 39.52 255.06 38.9 253.95 37.79C252.83 36.55 252.21 35.06 252.21 33.2C252.21 31.22 252.83 29.61 253.95 28.5C255.06 27.26 256.55 26.64 258.41 26.64C260.02 26.64 261.64 27.26 263.12 28.37C263.25 28.5 263.5 28.5 263.62 28.37C263.74 28.25 263.87 28.12 263.74 27.88L262.38 23.41C262.38 23.29 262.26 23.17 262.13 23.17C261.64 22.92 261.01 22.8 260.27 22.67C259.53 22.55 258.78 22.42 257.92 22.42C255.19 22.42 252.83 23.41 250.85 25.27C248.74 27.26 247.75 29.86 247.75 33.08C247.75 36.18 248.74 38.78 250.6 40.76C252.58 42.75 255.06 43.74 258.04 43.74C260.02 43.74 261.88 43.24 263.5 42.25C265.11 41.26 266.35 39.9 267.22 38.16C267.71 37.17 268.08 36.18 268.21 35.31C268.33 34.44 268.33 33.2 268.33 31.47L268.33 23.66C268.33 20.19 267.34 17.59 265.35 15.98C263.87 14.62 261.64 13.87 258.91 13.87Z" fill="#3E3E3E" fill-opacity="1.000000" fill-rule="nonzero"/>
		<path id="Vector" d="M281.1 22.42C278.25 22.42 275.77 23.54 273.66 25.65C271.68 27.75 270.69 30.23 270.69 33.08C270.69 36.05 271.68 38.53 273.66 40.64C275.65 42.75 278.13 43.86 281.1 43.86C282.96 43.86 284.57 43.36 286.19 42.5C287.55 41.75 288.54 40.76 289.41 39.65C289.54 39.52 289.54 39.28 289.41 39.15L286.81 36.67C286.68 36.55 286.56 36.55 286.44 36.55C286.31 36.55 286.19 36.67 286.19 36.67C285.57 37.54 284.95 38.28 284.08 38.78C283.34 39.28 282.34 39.52 281.23 39.52C279.74 39.52 278.62 39.03 277.51 38.16C276.51 37.29 275.9 36.3 275.52 34.94L291.02 34.94C291.27 34.94 291.4 34.81 291.4 34.57L291.52 32.96C291.52 30.11 290.53 27.63 288.42 25.52C286.44 23.54 283.96 22.42 281.1 22.42ZM281.1 26.64C282.59 26.64 283.71 27.13 284.82 28C285.82 28.87 286.44 29.86 286.81 31.1L275.52 31.1C275.9 29.86 276.51 28.74 277.51 28C278.5 27.13 279.74 26.64 281.1 26.64Z" fill="#3E3E3E" fill-opacity="1.000000" fill-rule="nonzero"/>
		<path id="Vector" d="M311.11 22.8L307.64 22.8C307.39 22.8 307.27 23.04 307.27 23.17L307.27 29.98L298.22 29.98L298.22 23.17C298.22 22.92 297.97 22.8 297.84 22.8L294.37 22.8C294.12 22.8 294 23.04 294 23.17L294 42.99C294 43.24 294.25 43.36 294.37 43.36L297.84 43.36C298.09 43.36 298.22 43.12 298.22 42.99L298.22 34.07L307.27 34.07L307.27 42.99C307.27 43.24 307.51 43.36 307.64 43.36L311.11 43.36C311.36 43.36 311.48 43.12 311.48 42.99L311.48 23.17C311.48 22.92 311.36 22.8 311.11 22.8Z" fill="#3E3E3E" fill-opacity="1.000000" fill-rule="nonzero"/>
		<path id="Vector" d="M323.14 27.26C323.01 27.26 322.64 27.26 322.02 27.38C321.28 27.5 321.03 27.63 320.91 27.75C320.78 27.75 320.78 27.88 320.66 28L319.42 32.46C319.42 32.71 319.42 32.83 319.67 32.96C319.79 33.08 320.04 32.96 320.16 32.83C320.66 32.34 321.16 31.96 321.65 31.72C322.15 31.47 322.64 31.47 323.14 31.47C324.26 31.47 325.25 31.84 325.99 32.71C326.86 33.58 327.23 34.44 327.23 35.56C327.23 36.67 326.86 37.66 325.99 38.53C325.12 39.4 324.26 39.77 323.14 39.77C322.02 39.77 321.03 39.4 320.29 38.66C319.42 37.91 319.05 36.92 319.05 35.68L319.05 23.41C319.05 23.17 318.8 23.04 318.68 23.04L315.08 23.04C314.83 23.04 314.71 23.29 314.71 23.41L314.71 34.32C314.71 35.19 314.71 36.18 314.83 36.92C314.96 37.79 315.08 38.53 315.33 39.03C315.95 40.51 317.06 41.75 318.43 42.75C319.79 43.74 321.4 44.11 323.14 44.11C325.5 44.11 327.48 43.24 329.09 41.63C330.7 40.02 331.45 38.04 331.45 35.81C331.45 33.7 330.7 31.84 329.34 30.23C327.85 28.12 325.74 27.26 323.14 27.26Z" fill="#3E3E3E" fill-opacity="1.000000" fill-rule="nonzero"/>
		<path id="Vector" d="M346.95 22.8L339.38 22.8C337.15 22.8 335.54 23.29 334.67 24.41C333.8 25.52 333.31 27.26 333.31 29.73L333.31 43.12C333.31 43.36 333.56 43.49 333.68 43.49L337.28 43.49C337.52 43.49 337.65 43.24 337.65 43.12L337.65 29.11C337.65 28.25 337.77 27.63 338.14 27.38C338.52 27.01 339.01 26.88 339.88 26.88L346.82 26.88C347.07 26.88 347.2 26.64 347.2 26.51L347.2 23.17C347.44 22.92 347.2 22.8 346.95 22.8Z" fill="#3E3E3E" fill-opacity="1.000000" fill-rule="nonzero"/>
		<path id="Vector" d="M366.42 22.8L362.94 22.8C362.7 22.8 362.57 23.04 362.57 23.17L362.57 34.94C362.57 36.3 362.2 37.29 361.33 38.28C360.46 39.15 359.47 39.65 358.11 39.65C356.74 39.65 355.75 39.15 354.88 38.28C354.02 37.29 353.64 36.18 353.64 34.81L353.64 23.29C353.64 23.04 353.4 22.92 353.27 22.92L349.8 22.92C349.55 22.92 349.43 23.17 349.43 23.29L349.43 34.69C349.43 37.54 350.17 39.77 351.78 41.38C353.27 42.99 355.5 43.86 358.36 43.86C359.6 43.86 360.59 43.74 361.46 43.36C361.95 43.12 362.45 42.87 362.82 42.5L362.82 42.99C362.82 43.24 363.07 43.36 363.19 43.36L366.66 43.36C366.91 43.36 367.04 43.12 367.04 42.99L367.04 23.17C366.79 22.92 366.54 22.8 366.42 22.8Z" fill="#3E3E3E" fill-opacity="1.000000" fill-rule="nonzero"/>
	</g>
</svg>
